<svg width="132" height="26" viewBox="0 0 132 26" fill="none" xmlns="http://www.w3.org/2000/svg">
<path d="M8.79851 19.6728L5.76709 16.6414C3.62292 14.4972 0 16.0129 0 19.0444V23H17.597V10.8743L8.79851 19.6728Z" fill="#EA580C"/>
<path d="M8.79856 6.32717L11.83 9.35859C13.9742 11.5028 17.5971 9.98705 17.5971 6.95563V3H4.66612e-05V15.1257L8.79856 6.32717Z" fill="#EA580C"/>
<path d="M29.9172 21.24C28.0505 21.24 26.6638 20.6133 25.7572 19.36C24.8638 18.0933 24.4172 16.3133 24.4172 14.02C24.4172 11.7267 24.8638 9.95333 25.7572 8.7C26.6638 7.43333 28.0505 6.8 29.9172 6.8C30.6372 6.8 31.2705 6.9 31.8172 7.1C32.3772 7.28667 32.8572 7.55333 33.2572 7.9C33.6572 8.24667 33.9838 8.66667 34.2372 9.16C34.5038 9.65333 34.7105 10.2067 34.8572 10.82L32.0572 11.5C31.9772 11.1667 31.8838 10.86 31.7772 10.58C31.6705 10.3 31.5305 10.06 31.3572 9.86C31.1972 9.66 30.9905 9.50667 30.7372 9.4C30.4972 9.28 30.2038 9.22 29.8572 9.22C29.0438 9.22 28.4638 9.54 28.1172 10.18C27.7838 10.8067 27.6172 11.68 27.6172 12.8V15.24C27.6172 16.36 27.7838 17.24 28.1172 17.88C28.4638 18.5067 29.0438 18.82 29.8572 18.82C30.5505 18.82 31.0505 18.6067 31.3572 18.18C31.6772 17.7533 31.9105 17.2067 32.0572 16.54L34.8572 17.22C34.7105 17.8333 34.5038 18.3867 34.2372 18.88C33.9838 19.3733 33.6572 19.8 33.2572 20.16C32.8572 20.5067 32.3772 20.7733 31.8172 20.96C31.2705 21.1467 30.6372 21.24 29.9172 21.24ZM36.8894 6.2H39.8494V12.56H39.9694C40.0894 12.2667 40.236 11.9933 40.4094 11.74C40.5827 11.4867 40.7894 11.2667 41.0294 11.08C41.2827 10.88 41.5694 10.7267 41.8894 10.62C42.2227 10.5 42.596 10.44 43.0094 10.44C43.5027 10.44 43.956 10.5267 44.3694 10.7C44.7827 10.86 45.136 11.1067 45.4294 11.44C45.7227 11.7733 45.9494 12.18 46.1094 12.66C46.2827 13.14 46.3694 13.6933 46.3694 14.32V21H43.4094V14.72C43.4094 13.3867 42.8294 12.72 41.6694 12.72C41.4427 12.72 41.216 12.7533 40.9894 12.82C40.776 12.8733 40.5827 12.9667 40.4094 13.1C40.236 13.22 40.096 13.3733 39.9894 13.56C39.896 13.7467 39.8494 13.9667 39.8494 14.22V21H36.8894V6.2ZM57.3215 21C56.7082 21 56.2149 20.8467 55.8415 20.54C55.4682 20.22 55.2482 19.7667 55.1815 19.18H55.0815C54.8949 19.86 54.5215 20.3733 53.9615 20.72C53.4149 21.0667 52.7415 21.24 51.9415 21.24C50.9415 21.24 50.1349 20.9733 49.5215 20.44C48.9215 19.8933 48.6215 19.1333 48.6215 18.16C48.6215 17.08 49.0149 16.28 49.8015 15.76C50.5882 15.24 51.7415 14.98 53.2615 14.98H54.9215V14.46C54.9215 13.8467 54.7749 13.3867 54.4815 13.08C54.2015 12.76 53.7215 12.6 53.0415 12.6C52.4149 12.6 51.9082 12.72 51.5215 12.96C51.1349 13.2 50.8015 13.5133 50.5215 13.9L48.9015 12.46C49.2482 11.8733 49.7882 11.3933 50.5215 11.02C51.2682 10.6333 52.2215 10.44 53.3815 10.44C54.7949 10.44 55.8949 10.7667 56.6815 11.42C57.4815 12.06 57.8815 13.0333 57.8815 14.34V18.86H59.0215V21H57.3215ZM53.0615 19.3C53.5815 19.3 54.0215 19.1733 54.3815 18.92C54.7415 18.6667 54.9215 18.3 54.9215 17.82V16.58H53.3415C52.1282 16.58 51.5215 16.9867 51.5215 17.8V18.2C51.5215 18.56 51.6615 18.8333 51.9415 19.02C52.2215 19.2067 52.5949 19.3 53.0615 19.3ZM61.0537 18.7H63.4337V12.98H61.0537V10.68H66.3937V13.6H66.5337C66.6271 13.2267 66.7537 12.8667 66.9137 12.52C67.0871 12.16 67.3004 11.8467 67.5537 11.58C67.8204 11.3 68.1404 11.08 68.5137 10.92C68.8871 10.76 69.3271 10.68 69.8337 10.68H70.8137V13.4H68.6137C67.8804 13.4 67.3271 13.62 66.9537 14.06C66.5804 14.4867 66.3937 15.0133 66.3937 15.64V18.7H69.7937V21H61.0537V18.7ZM81.3059 21C80.6926 21 80.1993 20.8467 79.8259 20.54C79.4526 20.22 79.2326 19.7667 79.1659 19.18H79.0659C78.8793 19.86 78.5059 20.3733 77.9459 20.72C77.3993 21.0667 76.7259 21.24 75.9259 21.24C74.9259 21.24 74.1193 20.9733 73.5059 20.44C72.9059 19.8933 72.6059 19.1333 72.6059 18.16C72.6059 17.08 72.9993 16.28 73.7859 15.76C74.5726 15.24 75.7259 14.98 77.2459 14.98H78.9059V14.46C78.9059 13.8467 78.7593 13.3867 78.4659 13.08C78.1859 12.76 77.7059 12.6 77.0259 12.6C76.3993 12.6 75.8926 12.72 75.5059 12.96C75.1193 13.2 74.7859 13.5133 74.5059 13.9L72.8859 12.46C73.2326 11.8733 73.7726 11.3933 74.5059 11.02C75.2526 10.6333 76.2059 10.44 77.3659 10.44C78.7793 10.44 79.8793 10.7667 80.6659 11.42C81.4659 12.06 81.8659 13.0333 81.8659 14.34V18.86H83.0059V21H81.3059ZM77.0459 19.3C77.5659 19.3 78.0059 19.1733 78.3659 18.92C78.7259 18.6667 78.9059 18.3 78.9059 17.82V16.58H77.3259C76.1126 16.58 75.5059 16.9867 75.5059 17.8V18.2C75.5059 18.56 75.6459 18.8333 75.9259 19.02C76.2059 19.2067 76.5793 19.3 77.0459 19.3ZM87.7981 21L84.0981 10.68H87.2181L88.5581 15.1L89.5381 18.54H89.6981L90.6781 15.1L92.0181 10.68H95.0181L91.3181 21H87.7981ZM102.19 9.36C101.524 9.36 101.057 9.22667 100.79 8.96C100.537 8.68 100.41 8.34667 100.41 7.96V7.38C100.41 6.98 100.537 6.64667 100.79 6.38C101.057 6.11333 101.524 5.98 102.19 5.98C102.857 5.98 103.317 6.11333 103.57 6.38C103.837 6.64667 103.97 6.98 103.97 7.38V7.96C103.97 8.34667 103.837 8.68 103.57 8.96C103.317 9.22667 102.857 9.36 102.19 9.36ZM97.4303 18.7H100.71V12.98H97.4303V10.68H103.67V18.7H106.71V21H97.4303V18.7ZM108.722 6.2H111.682V12.56H111.822C112.076 11.9467 112.442 11.44 112.922 11.04C113.402 10.64 114.056 10.44 114.882 10.44C115.456 10.44 115.976 10.5467 116.442 10.76C116.922 10.9733 117.329 11.3 117.662 11.74C118.009 12.18 118.276 12.74 118.462 13.42C118.662 14.1 118.762 14.9067 118.762 15.84C118.762 16.7733 118.662 17.58 118.462 18.26C118.276 18.94 118.009 19.5 117.662 19.94C117.329 20.38 116.922 20.7067 116.442 20.92C115.976 21.1333 115.456 21.24 114.882 21.24C114.056 21.24 113.402 21.0467 112.922 20.66C112.442 20.26 112.076 19.7467 111.822 19.12H111.682V21H108.722V6.2ZM113.602 18.94C114.269 18.94 114.782 18.74 115.142 18.34C115.502 17.9267 115.682 17.36 115.682 16.64V15.04C115.682 14.32 115.502 13.76 115.142 13.36C114.782 12.9467 114.269 12.74 113.602 12.74C113.082 12.74 112.629 12.8667 112.242 13.12C111.869 13.3733 111.682 13.7733 111.682 14.32V17.36C111.682 17.9067 111.869 18.3067 112.242 18.56C112.629 18.8133 113.082 18.94 113.602 18.94ZM125.815 21.24C124.081 21.24 122.768 20.76 121.875 19.8C120.981 18.84 120.535 17.5333 120.535 15.88C120.535 15.04 120.648 14.2867 120.875 13.62C121.115 12.94 121.448 12.3667 121.875 11.9C122.315 11.42 122.841 11.06 123.455 10.82C124.081 10.5667 124.781 10.44 125.555 10.44C126.328 10.44 127.021 10.5667 127.635 10.82C128.248 11.06 128.768 11.4067 129.195 11.86C129.621 12.3133 129.948 12.8667 130.175 13.52C130.415 14.16 130.535 14.88 130.535 15.68V16.56H123.475V16.74C123.475 17.4067 123.681 17.9467 124.095 18.36C124.508 18.76 125.115 18.96 125.915 18.96C126.528 18.96 127.055 18.8467 127.495 18.62C127.935 18.38 128.315 18.0667 128.635 17.68L130.235 19.42C129.835 19.9133 129.275 20.34 128.555 20.7C127.835 21.06 126.921 21.24 125.815 21.24ZM125.575 12.56C124.935 12.56 124.421 12.76 124.035 13.16C123.661 13.5467 123.475 14.0733 123.475 14.74V14.9H127.635V14.74C127.635 14.06 127.448 13.5267 127.075 13.14C126.715 12.7533 126.215 12.56 125.575 12.56Z" fill="#0F172A"/>
</svg>
